# xmcd CD database file
#
# Track frame offsets:
#	150
#	18080
#	35283
#	53242
#	69028
#	84852
#	99675
#	114612
#	129795
#	143658
#	158671
#	173866
#	189410
#	205615
#	220223
#	235550
#	250365
#	266845
#	280886
#	296126
#	311698
#
# Disc length: 4426 seconds
#
# Revision: 0
# Processed by: cddbd v1.5.2PL0 Copyright (c) Steve Scherf et al.
# Submitted via: CDex 1.51
#
DISCID=1e114815
DTITLE=Various Artist - Edison Diamond Discs - Electrical Recordings 1927-1929
DYEAR=1929
DGENRE=Jazz
TTITLE0=Joe Green - Did You Mean It
TTITLE1=Joe Green - So Tired
TTITLE2=Ernie Golden - An Old Guitar And An Old Refrain
TTITLE3=Ernie Golden - (Hooray Hooray) It's Ray-Ray-Raining
TTITLE4=Jack Kaufman - There Ought To Be A Law Against That
TTITLE5=Jack Kaufman - Since She Learned To Ride A Horse
TTITLE6=Jack Kaufman - Mamma's Grown Young, Papa's Grown Old
TTITLE7=Piccadilly Players - Old Man Sunshine (Little Boy Bluebird)
TTITLE8=Piccadilly Players - If You Don't Love Me
TTITLE9=Oreste and His Queensland Orchestra - Ten Little Miles From Town
TTITLE10=Oreste and His Queensland Orchestra - Anything You Say
TTITLE11=B. A. Rolfe - Roses Of Yesterday
TTITLE12=B. A. Rolfe - It Must Be Love
TTITLE13=Jack Dalton - Heaven Help A Sailor On A Night Like This
TTITLE14=Jack Dalton - Outside
TTITLE15=Arthur Fields - I Faw Down An' Go Boom
TTITLE16=Roy Turk - The One That I Love Loves Me
TTITLE17=B. A. Rolfe - Hello Sweetie
TTITLE18=B. A. Rolfe - Dance Of The Paper Dolls
TTITLE19=Piccadilly Players - Lady Of The Morning
TTITLE20=The Edisonians - When Day Is Done
EXTD=YEAR: 1929
EXTT0=
EXTT1=
EXTT2=
EXTT3=
EXTT4=
EXTT5=
EXTT6=
EXTT7=
EXTT8=
EXTT9=
EXTT10=
EXTT11=
EXTT12=
EXTT13=
EXTT14=
EXTT15=
EXTT16=
EXTT17=
EXTT18=
EXTT19=
EXTT20=
PLAYORDER=
